# xmcd
#
# Track frame offsets: 
#        150
#        12016
#        23869
#        36425
#        46894
#        60325
#        72721
#        85671
#        100433
#        111630
#        125018
#        142713
#        153945
#        165834
#        178357
#        189687
#        202522
#        216513
#        226945
#        241558
#        254610
#        267630
#        280141
#        293692
#        306089
#
# Disc length: 4221 seconds
#
# Revision: 1
# Processed by: cddbd v1.5.2PL0 Copyright (c) Steve Scherf et al.
# Submitted via: ExactAudioCopyFreeDBPlugin 1.0
#
DISCID=65107b19
DTITLE=Various Artist - Laissez Le Bon Temps Rouler - Authentic Cajun
DYEAR=2006
DGENRE=Cajun
TTITLE0=Clifton Chenier - Ay-Tete Fee
TTITLE1=Harry Choates - Jole Blon
TTITLE2=Hank Williams - Jambalaya
TTITLE3=Cajun Kickers - Louisiana Saturday Night
TTITLE4=Dennis McGee - Happy One Step
TTITLE5=Nathan Abshire - Pine Grove Blues
TTITLE6=Joe Falcon - Lafayette
TTITLE7=Cajun Kickers - Down At The Twist And Shout
TTITLE8=Happy Fats LeBlanc - Les Veuves De La Coulee
TTITLE9=Amedé Ardoin - Two Step De Mama
TTITLE10=Cajun Kickers - Chattahoochie
TTITLE11=Iry LeJeune - Evangeline Special
TTITLE12=Harry Chaotes - Poor Hobo
TTITLE13=Dennis McGee - Two Step De La Ville Platte
TTITLE14=Hackberry Ramblers - Marmentan Stomp
TTITLE15=Leo Soilean and Mayuse LaFluer - Mama, Where You At?
TTITLE16=Joe's Acadians - Ammend La Nouville A Mammere
TTITLE17=Happy Fats LeBlanc - Gabriel
TTITLE18=Cajun Kickers - Cotton Eyed Joe
TTITLE19=Breaux Freres - Le One Step A Martin
TTITLE20=Joe Falcon - Aimer Et Perdre
TTITLE21=Iry LeJeune - Love Bridge Waltz
TTITLE22=Cajun Kickers - Wild Side Of Life
TTITLE23=Bobby Charles - See You Later Alligator
TTITLE24=Alley Boys Of Abbeville - Abbeville Breakdown
EXTD=
EXTT0=
EXTT1=
EXTT2=
EXTT3=
EXTT4=
EXTT5=
EXTT6=
EXTT7=
EXTT8=
EXTT9=
EXTT10=
EXTT11=
EXTT12=
EXTT13=
EXTT14=
EXTT15=
EXTT16=
EXTT17=
EXTT18=
EXTT19=
EXTT20=
EXTT21=
EXTT22=
EXTT23=
EXTT24=
PLAYORDER=
